STARTFONT 2.1
COMMENT $XConsortium: luBIS24.bdf,v 1.8 94/04/02 16:22:57 gildea Exp $
COMMENT  (c) Copyright Bigelow & Holmes 1986, 1985. Lucida is a registered
COMMENT  trademark of Bigelow & Holmes. See LEGAL NOTICE file for terms 
COMMENT  of the license. 
COMMENT  
COMMENT  Translation to ISO8859-2 by Cub Soft;  Petr.Kolar@vslib.cz
COMMENT  
FONT -B&H-Lucida-Bold-I-Normal-Sans-34-240-100-100-P-215-ISO8859-2
SIZE 24 100 100
FONTBOUNDINGBOX 91 39 -24 -7
STARTPROPERTIES 20
COMMENT Begin LogicalFontDescription
FONTNAME_REGISTRY ""
FOUNDRY "B&H"
FAMILY_NAME "Lucida"
WEIGHT_NAME "Bold"
SLANT "I"
SETWIDTH_NAME "Normal"
ADD_STYLE_NAME "Sans"
PIXEL_SIZE 34
POINT_SIZE 240
RESOLUTION_X 100
RESOLUTION_Y 100
SPACING "P"
AVERAGE_WIDTH 215
CHARSET_REGISTRY "ISO8859"
CHARSET_ENCODING "2"
COMMENT END LogicalFontDescription
FONT_ASCENT 31
FONT_DESCENT 8
DEFAULT_CHAR 0
COPYRIGHT "Copyright Bigelow & Holmes 1986, 1985., Copyright 1996 Cub Soft"
FACE_NAME "Lucida Sans Bold Italic"
ENDPROPERTIES
CHARS 191
STARTCHAR space
ENCODING 32
SWIDTH 343 0
DWIDTH 12 0
BBX 1 1 0 0
BITMAP
00
ENDCHAR
STARTCHAR exclam
ENCODING 33
SWIDTH 343 0
DWIDTH 12 0
BBX 11 25 3 0
BITMAP
07e0
0fe0
0fe0
0fc0
0fc0
0fc0
0fc0
0f80
1f80
1f80
1f80
1f00
1f00
1f00
1e00
1e00
3e00
0000
0000
0000
0000
7e00
7e00
fe00
fc00
ENDCHAR
STARTCHAR quotedbl
ENCODING 34
SWIDTH 530 0
DWIDTH 18 0
BBX 16 11 5 15
BITMAP
fe7f
fc3f
fc3f
fc3f
7c3e
7c3e
7c3e
7c3e
781e
781e
781e
ENDCHAR
STARTCHAR numbersign
ENCODING 35
SWIDTH 687 0
DWIDTH 23 0
BBX 22 25 3 0
BITMAP
000e3c
001c38
001c38
003c70
003870
0078e0
0070e0
3ffffc
3ffffc
3ffff8
01c380
03c780
038700
078f00
070e00
7ffff0
7ffff0
fffff0
1c3800
1c7800
387000
38f000
70e000
70e000
f1c000
ENDCHAR
STARTCHAR dollar
ENCODING 36
SWIDTH 687 0
DWIDTH 23 0
BBX 20 33 4 -4
BITMAP
000f00
000e00
001e00
001e00
007fe0
01fff0
03fff0
07fff0
07dc60
0fdc20
0fdc00
0fd800
0ff800
07f800
07f800
03fc00
01ff00
00ff80
00ff80
00ffc0
00ffc0
00efc0
00cfc0
40cfc0
71cf80
ffff80
ffff00
fffe00
7ff800
03c000
03c000
03c000
03c000
ENDCHAR
STARTCHAR percent
ENCODING 37
SWIDTH 908 0
DWIDTH 31 0
BBX 28 25 4 0
BITMAP
07c001f0
1ff003c0
3ff807c0
7ff80f80
7cf81f00
f8f83e00
f8f87c00
f8f8f800
f9f1f000
fff1e000
7fe3c000
7fc78000
1f0f0000
001e0f80
003c3fe0
00787fe0
00f0fff0
01f1f9f0
03e1f1f0
07c1f1f0
0f81f3e0
1f01ffe0
3e01ffc0
3c00ff80
f8003e00
ENDCHAR
STARTCHAR ampersand
ENCODING 38
SWIDTH 816 0
DWIDTH 28 0
BBX 26 25 3 0
BITMAP
000fe000
003ff000
00fff800
00fffc00
01fc7c00
01f87c00
01f87800
01f9f800
01fff000
00ffc000
00ff07c0
07fe07c0
0fff0780
3f3f8780
7e3f8f80
7c1fcf00
fc1fdf00
fc0ffe00
fc0ffc00
fe07f800
ff07f000
7ffff800
3ffff800
1ffffc00
07f0fe00
ENDCHAR
STARTCHAR apostrophe
ENCODING 39
SWIDTH 265 0
DWIDTH 9 0
BBX 9 12 4 14
BITMAP
3f80
3f80
3f00
3f00
7f00
7f00
7f00
1e00
1e00
fc00
f800
c000
ENDCHAR
STARTCHAR parenleft
ENCODING 40
SWIDTH 386 0
DWIDTH 13 0
BBX 13 32 3 -6
BITMAP
0008
0018
0078
00f8
01f0
03e0
07e0
0fc0
0f80
1f80
3f80
3f00
7f00
7e00
7e00
fe00
fe00
fe00
fc00
fc00
fc00
fc00
fc00
fc00
7c00
7e00
3e00
3f00
1f00
0f00
0600
0200
ENDCHAR
STARTCHAR parenright
ENCODING 41
SWIDTH 386 0
DWIDTH 13 0
BBX 13 32 1 -6
BITMAP
0200
0380
03c0
03e0
03e0
03f0
01f0
01f8
01f8
01f8
01f8
01f8
01f8
01f8
01f8
01f8
01f8
03f8
03f0
03f0
07f0
07e0
07e0
0fc0
1f80
1f80
3f00
7e00
7c00
f000
e000
8000
ENDCHAR
STARTCHAR asterisk
ENCODING 42
SWIDTH 464 0
DWIDTH 16 0
BBX 13 13 5 12
BITMAP
07c0
03c0
2388
3398
7978
78f8
f8f8
0880
1d80
79c0
79e0
3180
1100
ENDCHAR
STARTCHAR plus
ENCODING 43
SWIDTH 687 0
DWIDTH 23 0
BBX 20 21 4 0
BITMAP
003c00
003800
003800
007800
007800
007800
007000
007000
7ffff0
fffff0
fffff0
ffffe0
00e000
00e000
01e000
01e000
01e000
01e000
01c000
01c000
03c000
ENDCHAR
STARTCHAR comma
ENCODING 44
SWIDTH 343 0
DWIDTH 12 0
BBX 9 13 2 -6
BITMAP
3f80
3f80
3f80
3f00
7f00
7f00
7f00
1e00
1e00
3c00
fc00
f000
c000
ENDCHAR
STARTCHAR minus
ENCODING 45
SWIDTH 687 0
DWIDTH 23 0
BBX 20 4 4 8
BITMAP
7ffff0
7ffff0
ffffe0
ffffe0
ENDCHAR
STARTCHAR period
ENCODING 46
SWIDTH 343 0
DWIDTH 12 0
BBX 8 7 2 0
BITMAP
7f
7f
7f
7e
fe
fe
fe
ENDCHAR
STARTCHAR slash
ENCODING 47
SWIDTH 596 0
DWIDTH 20 0
BBX 26 32 0 -6
BITMAP
000007c0
00000f80
00001f00
00001f00
00003e00
00007c00
00007c00
0000f800
0001f000
0001f000
0003e000
0003c000
0007c000
000f8000
000f0000
001f0000
003e0000
003c0000
007c0000
00f80000
00f00000
01f00000
03e00000
03c00000
07c00000
0f800000
0f800000
1f000000
3e000000
3e000000
7c000000
f8000000
ENDCHAR
STARTCHAR zero
ENCODING 48
SWIDTH 687 0
DWIDTH 23 0
BBX 22 25 3 0
BITMAP
003f00
00ffc0
03fff0
07fff0
0fe3f8
1fc1f8
1f81f8
3f81fc
3f01fc
7f01fc
7f01fc
7f01fc
fe03f8
fe03f8
fe03f8
fe03f8
fe07f0
fe07f0
fe07e0
7e0fc0
7f1fc0
7fff80
3ffe00
1ffc00
07f000
ENDCHAR
STARTCHAR one
ENCODING 49
SWIDTH 687 0
DWIDTH 23 0
BBX 12 25 8 0
BITMAP
7ff0
7ff0
7fe0
7fe0
0fe0
0fe0
0fe0
0fc0
1fc0
1fc0
1fc0
1fc0
1f80
3f80
3f80
3f80
3f80
3f00
7f00
7f00
7f00
7f00
7e00
fe00
fe00
ENDCHAR
STARTCHAR two
ENCODING 50
SWIDTH 687 0
DWIDTH 23 0
BBX 22 25 3 0
BITMAP
00ff80
07fff0
07fff8
07fff8
0c03fc
0001fc
0001fc
0001fc
0001f8
0003f8
0007f0
000fe0
003fc0
007f00
00fe00
03f800
07f000
0fc000
1f8000
3f0000
7f0000
7fffe0
ffffe0
ffffe0
ffffc0
ENDCHAR
STARTCHAR three
ENCODING 51
SWIDTH 687 0
DWIDTH 23 0
BBX 20 25 4 0
BITMAP
01ff00
07ffc0
07ffe0
0ffff0
0c0ff0
0007f0
0007f0
0007e0
000fc0
003f80
0ffe00
0ff800
0fff00
0fff80
007fc0
001fc0
000fc0
000fc0
001fc0
001fc0
607fc0
7fff80
ffff00
fffc00
3ff000
ENDCHAR
STARTCHAR four
ENCODING 52
SWIDTH 687 0
DWIDTH 23 0
BBX 21 25 2 0
BITMAP
0001f8
0003f0
0007f0
000ff0
001ff0
003ff0
007ff0
00fbe0
01f7e0
03e7e0
07c7e0
0fc7e0
0f87c0
1f07c0
3e0fc0
7ffff8
7ffff8
fffff0
fffff0
001f80
001f80
001f80
001f00
003f00
003f00
ENDCHAR
STARTCHAR five
ENCODING 53
SWIDTH 687 0
DWIDTH 23 0
BBX 21 25 4 0
BITMAP
07fff8
07fff8
07fff0
07fff0
0f0000
0f0000
0e0000
0e0000
1fe000
1ffc00
1ffe00
1fff00
00ff80
003fc0
001fc0
001fc0
001fc0
001fc0
001fc0
003fc0
607f80
7fff00
fffe00
fffc00
7fe000
ENDCHAR
STARTCHAR six
ENCODING 54
SWIDTH 687 0
DWIDTH 23 0
BBX 22 25 4 0
BITMAP
001ff0
00fffc
01fffc
07fffc
0ff038
0fe008
1fc000
3f8000
3f8000
7f3f00
7fffc0
7fffe0
fffff0
ff8ff0
fe07f0
fe03f0
fe03f0
fe03f0
fe03f0
7e07e0
7f0fc0
3fffc0
1fff80
0ffe00
03f800
ENDCHAR
STARTCHAR seven
ENCODING 55
SWIDTH 687 0
DWIDTH 23 0
BBX 19 25 7 0
BITMAP
7fffe0
7fffe0
7fffe0
ffffc0
0007c0
000fc0
001f80
003f00
007e00
00fc00
00f800
01f800
03f000
07e000
07c000
0fc000
1f8000
1f8000
3f0000
3f0000
7e0000
7e0000
fe0000
fe0000
fe0000
ENDCHAR
STARTCHAR eight
ENCODING 56
SWIDTH 687 0
DWIDTH 23 0
BBX 21 25 4 0
BITMAP
003f80
00ffe0
03fff0
07fff8
07e1f8
0fc1f8
0f80f8
0fc1f0
0fe3f0
07f7e0
07ff80
03ff00
07ffc0
1fffe0
3f1fe0
7e0ff0
7c03f0
fc03f0
fc03f0
fc07e0
fe0fe0
ffffc0
7fff80
3ffe00
0ff000
ENDCHAR
STARTCHAR nine
ENCODING 57
SWIDTH 687 0
DWIDTH 23 0
BBX 22 25 3 0
BITMAP
007f00
01ffc0
07ffe0
0ffff0
0fc3f8
1f81f8
3f01fc
3f01fc
3f01fc
3f01fc
3f01fc
3fc7fc
3ffffc
1ffff8
0ffff8
03f3f8
0007f0
0007f0
000fe0
401fc0
707fc0
ffff80
fffe00
fffc00
3fe000
ENDCHAR
STARTCHAR colon
ENCODING 58
SWIDTH 343 0
DWIDTH 12 0
BBX 10 18 3 0
BITMAP
1fc0
1fc0
1fc0
1f80
1f80
1f80
3f80
0000
0000
0000
0000
7f00
7e00
7e00
7e00
fe00
fe00
fc00
ENDCHAR
STARTCHAR semicolon
ENCODING 59
SWIDTH 343 0
DWIDTH 12 0
BBX 11 24 2 -6
BITMAP
0fe0
0fe0
0fe0
0fc0
0fc0
0fc0
1fc0
0000
0000
0000
0000
0000
3f80
3f00
3f00
7f00
7f00
7f00
1e00
1e00
3c00
fc00
f000
c000
ENDCHAR
STARTCHAR less
ENCODING 60
SWIDTH 687 0
DWIDTH 23 0
BBX 22 21 4 0
BITMAP
000004
00001c
00007c
0001f8
0007f8
001fe0
007f80
01fe00
07f800
3fe000
ff8000
3f8000
0fe000
07f800
01fc00
007f00
003fc0
000fe0
0003e0
0000c0
000040
ENDCHAR
STARTCHAR equal
ENCODING 61
SWIDTH 687 0
DWIDTH 23 0
BBX 22 12 3 4
BITMAP
3ffffc
3ffffc
3ffff8
3ffff8
000000
000000
000000
000000
7ffff0
7ffff0
fffff0
fffff0
ENDCHAR
STARTCHAR greater
ENCODING 62
SWIDTH 687 0
DWIDTH 23 0
BBX 22 21 2 0
BITMAP
080000
0c0000
1f0000
1fc000
0ff000
03f800
00fe00
007f80
001fc0
0007f0
0007fc
001ff0
007f80
01fe00
07f800
1fe000
7f8000
7e0000
780000
e00000
800000
ENDCHAR
STARTCHAR question
ENCODING 63
SWIDTH 539 0
DWIDTH 18 0
BBX 17 25 4 0
BITMAP
1ff800
7ffe00
7fff00
7fff80
e07f80
803f80
003f80
003f00
007f00
007e00
00fc00
03f000
07e000
0fc000
1fc000
3f8000
3f8000
3f0000
000000
000000
000000
7f0000
7e0000
fe0000
fe0000
ENDCHAR
STARTCHAR at
ENCODING 64
SWIDTH 833 0
DWIDTH 28 0
BBX 26 25 3 0
BITMAP
000fe000
007ff800
01fffe00
03f01f00
07800780
0f000380
1e0001c0
3c0ff1c0
383fe0c0
7070e0c0
70e0e0c0
e1c1e0c0
e381c1c0
e383c1c0
e387c180
e38fc380
e79dc700
e3f9fe00
63f1fc00
71c1f000
38000000
3e030000
1fff0000
07ff8000
01fc0000
ENDCHAR
STARTCHAR A
ENCODING 65
SWIDTH 771 0
DWIDTH 26 0
BBX 25 25 1 0
BITMAP
0007f000
0007f000
000ff800
000ff800
001ff800
001ff800
003ff800
003dfc00
007dfc00
00f8fc00
00f8fc00
01f0fc00
01f0fe00
03e0fe00
03e07e00
07fffe00
07fffe00
0fffff00
0fffff00
1f003f00
1e003f00
3e003f00
7c003f80
7c003f80
f8001f80
ENDCHAR
STARTCHAR B
ENCODING 66
SWIDTH 660 0
DWIDTH 22 0
BBX 21 25 3 0
BITMAP
07ffc0
07fff0
0ffff0
0ffff8
0fc3f8
0fc3f8
0fc3f8
1f83f0
1f87f0
1f8fe0
1fff80
1fff00
3ffe00
3fff80
3f1fe0
3f07e0
3f07f0
7e07f0
7e07f0
7e07f0
7e1fe0
7fffe0
ffffc0
ffff80
fffc00
ENDCHAR
STARTCHAR C
ENCODING 67
SWIDTH 737 0
DWIDTH 25 0
BBX 25 25 3 0
BITMAP
0007fc00
003fff80
00ffff80
03ffff80
07fc0f00
0ff00100
1fe00000
1fc00000
3f800000
3f000000
7f000000
7f000000
fe000000
fe000000
fe000000
fe000000
fe000000
fe000000
ff000000
7f800800
7fc07800
3ffff800
1ffff800
0ffff800
03ff0000
ENDCHAR
STARTCHAR D
ENCODING 68
SWIDTH 822 0
DWIDTH 28 0
BBX 27 25 3 0
BITMAP
07fff800
07ffff00
0fffff80
0fffffc0
0fe07fc0
0fe01fe0
0fc01fe0
1fc00fe0
1fc00fe0
1fc00fe0
1fc00fe0
1f800fe0
3f800fe0
3f801fc0
3f801fc0
3f801fc0
3f003f80
7f007f80
7f00ff00
7f01fe00
7f07fe00
7ffff800
fffff000
ffffc000
fffe0000
ENDCHAR
STARTCHAR E
ENCODING 69
SWIDTH 642 0
DWIDTH 22 0
BBX 22 25 3 0
BITMAP
07fffc
07fffc
07fff8
0ffff8
0fe000
0fe000
0fc000
0fc000
1fc000
1fc000
1fffc0
1fffc0
1fff80
3fff80
3f8000
3f8000
3f0000
3f0000
7f0000
7f0000
7f0000
7fffe0
7fffc0
ffffc0
ffffc0
ENDCHAR
STARTCHAR F
ENCODING 70
SWIDTH 614 0
DWIDTH 21 0
BBX 22 25 3 0
BITMAP
07fffc
07fffc
07fff8
0ffff8
0fe000
0fe000
0fc000
0fc000
1fc000
1fc000
1fc000
1fffc0
1fff80
3fff80
3fff80
3f8000
3f0000
3f0000
7f0000
7f0000
7f0000
7e0000
7e0000
fe0000
fe0000
ENDCHAR
STARTCHAR G
ENCODING 71
SWIDTH 755 0
DWIDTH 26 0
BBX 25 25 3 0
BITMAP
0007fc00
003fff80
00ffff80
03ffff80
07fc0f00
0ff00100
1fe00000
1fc00000
3f800000
3f000000
7f000000
7f000000
fe000000
fe00fe00
fe00fc00
fe00fc00
fe00fc00
fe01fc00
ff01f800
7f81f800
7fc1f800
3ffff800
1ffff800
0ffff000
03ff8000
ENDCHAR
STARTCHAR H
ENCODING 72
SWIDTH 813 0
DWIDTH 28 0
BBX 27 25 3 0
BITMAP
07f00fe0
07e00fe0
0fe00fe0
0fe00fc0
0fe00fc0
0fc01fc0
0fc01fc0
1fc01fc0
1fc01f80
1fc01f80
1fffff80
1fffff80
3fffff80
3fffff00
3f803f00
3f007f00
3f007f00
7f007f00
7f007e00
7f007e00
7e00fe00
7e00fe00
fe00fe00
fe00fc00
fe01fc00
ENDCHAR
STARTCHAR I
ENCODING 73
SWIDTH 361 0
DWIDTH 12 0
BBX 11 25 3 0
BITMAP
07e0
0fe0
0fe0
0fc0
0fc0
0fc0
1fc0
1fc0
1f80
1f80
1f80
1f80
3f80
3f00
3f00
3f00
3f00
7f00
7f00
7e00
7e00
7e00
fe00
fe00
fc00
ENDCHAR
STARTCHAR J
ENCODING 74
SWIDTH 502 0
DWIDTH 17 0
BBX 19 31 0 -6
BITMAP
000fe0
000fe0
000fe0
000fc0
000fc0
000fc0
001fc0
001fc0
001f80
001f80
001f80
003f80
003f80
003f00
003f00
003f00
003f00
007f00
007f00
007e00
007e00
007e00
00fe00
00fe00
00fc00
00fc00
41fc00
7ff800
fff000
ffe000
7f8000
ENDCHAR
STARTCHAR K
ENCODING 75
SWIDTH 753 0
DWIDTH 26 0
BBX 23 25 3 0
BITMAP
07e03e
07e07c
0fe0f8
0fe1f0
0fc1f0
0fc3e0
0fc7c0
1fcf80
1fcf00
1f9f00
1fbe00
1ffe00
3ffe00
3fff00
3f7f80
3f3f80
3f1fc0
7f1fc0
7f0fe0
7f0fe0
7e07f0
7e07f0
fe03f8
fe03f8
fe01fc
ENDCHAR
STARTCHAR L
ENCODING 76
SWIDTH 623 0
DWIDTH 21 0
BBX 19 25 3 0
BITMAP
07f000
07e000
0fe000
0fe000
0fe000
0fe000
0fc000
1fc000
1fc000
1fc000
1fc000
1f8000
3f8000
3f8000
3f8000
3f8000
3f0000
7f0000
7f0000
7f0000
7f0000
7fffe0
ffffe0
ffffe0
ffffc0
ENDCHAR
STARTCHAR M
ENCODING 77
SWIDTH 940 0
DWIDTH 32 0
BBX 31 25 3 0
BITMAP
07f801fe
07f801fe
0ff803fe
0ffc03fc
0ffc07fc
0ffc07fc
0ffc0ffc
1ffc0ffc
1f7c1ff8
1f7c3ff8
1f7c3df8
1e7e7df8
3e7e79f8
3e7ef3f0
3e7ef3f0
3e7fe3f0
3e7fe3f0
7c3fc3f0
7c3fc7e0
7c3f87e0
7c3f87e0
7c3f07e0
f83e07e0
f8000fc0
f8000fc0
ENDCHAR
STARTCHAR N
ENCODING 78
SWIDTH 789 0
DWIDTH 27 0
BBX 26 25 3 0
BITMAP
07e007c0
07e007c0
0ff007c0
0ff00f80
0ff80f80
0ff80f80
0ffc0f80
1ffc0f80
1ffe1f00
1ffe1f00
1f7e1f00
1f7f1f00
3e3f1f00
3e3fbe00
3e1fbe00
3e1ffe00
3e0ffe00
7c0ffe00
7c07fc00
7c07fc00
7c03fc00
7c03fc00
f801fc00
f801f800
f800f800
ENDCHAR
STARTCHAR O
ENCODING 79
SWIDTH 855 0
DWIDTH 29 0
BBX 27 25 3 0
BITMAP
000ff800
003ffe00
00ffff80
03ffffc0
07f83fc0
0fe01fe0
1fc00fe0
1f800fe0
3f800fe0
3f000fe0
7f000fe0
7f000fe0
fe000fe0
fe000fe0
fe001fc0
fe001fc0
fe003f80
fe003f80
ff007f00
7f00fe00
7fc3fc00
3ffff800
1fffe000
0fffc000
01fe0000
ENDCHAR
STARTCHAR P
ENCODING 80
SWIDTH 645 0
DWIDTH 22 0
BBX 22 25 3 0
BITMAP
07ffe0
07fff8
0ffff8
0ffffc
0fc1fc
0fc1fc
0fc1fc
1fc1fc
1f81f8
1f83f8
1f87f0
1fffe0
3fffc0
3fff80
3ffc00
3f0000
3f0000
7f0000
7e0000
7e0000
7e0000
7e0000
fe0000
fc0000
fc0000
ENDCHAR
STARTCHAR Q
ENCODING 81
SWIDTH 855 0
DWIDTH 29 0
BBX 28 31 3 -6
BITMAP
000ff800
003ffe00
00ffff80
03ffff80
07f83fc0
0fe01fe0
1fc00fe0
1f800fe0
3f800fe0
3f000fe0
7f000fe0
7f000fe0
fe000fe0
fe000fe0
fe001fc0
fe001fc0
fe003f80
fe003f80
ff007f00
7f00fe00
7fc3fc00
3ffff800
1fffe000
0fffc000
01ffe000
0007fe00
0003ffc0
0000fff0
00007fc0
00001f80
00000300
ENDCHAR
STARTCHAR R
ENCODING 82
SWIDTH 708 0
DWIDTH 24 0
BBX 22 25 3 0
BITMAP
07ffe0
07fff8
0ffffc
0ffffc
0fc1fc
0fc1fc
0fc1fc
1f81fc
1f81f8
1f83f0
1f87f0
1fffe0
3fff80
3fff00
3fff00
3f3f80
3f1f80
7f1f80
7e1fc0
7e0fc0
7e0fe0
7e0fe0
fe07e0
fc07f0
fc07f0
ENDCHAR
STARTCHAR S
ENCODING 83
SWIDTH 639 0
DWIDTH 22 0
BBX 20 25 3 0
BITMAP
007fc0
01fff0
03fff0
07ffe0
0fe060
0fc000
1fc000
1fc000
1fe000
0ff000
0ffc00
07fe00
03ff00
01ff80
00ffc0
003fc0
001fc0
001fc0
001fc0
001fc0
603f80
7fff80
fffe00
fffc00
ffe000
ENDCHAR
STARTCHAR T
ENCODING 84
SWIDTH 747 0
DWIDTH 25 0
BBX 25 25 5 0
BITMAP
7fffff80
ffffff80
ffffff80
ffffff00
007e0000
007e0000
00fe0000
00fe0000
00fc0000
00fc0000
00fc0000
01fc0000
01fc0000
01fc0000
01f80000
01f80000
03f80000
03f80000
03f80000
03f00000
03f00000
07f00000
07f00000
07f00000
07e00000
ENDCHAR
STARTCHAR U
ENCODING 85
SWIDTH 759 0
DWIDTH 26 0
BBX 24 25 4 0
BITMAP
1fc03f
1f803f
1f803f
1f803e
3f807e
3f807e
3f007e
3f007e
3f007c
7f00fc
7f00fc
7e00fc
7e00fc
7e00f8
fe01f8
fe01f8
fe01f8
fe01f0
fe03f0
fe03e0
7f07e0
7fffc0
3fff80
1fff00
03fc00
ENDCHAR
STARTCHAR V
ENCODING 86
SWIDTH 765 0
DWIDTH 26 0
BBX 24 25 6 0
BITMAP
fe001f
fe001e
fe003e
7e003c
7e007c
7f00f8
7f00f0
7f01f0
7f01e0
3f03e0
3f03c0
3f87c0
3f8780
3f8f80
3f8f00
1f9f00
1f9e00
1fbe00
1ffc00
1ffc00
1ff800
0ff000
0ff000
0fe000
0fe000
ENDCHAR
STARTCHAR W
ENCODING 87
SWIDTH 991 0
DWIDTH 34 0
BBX 31 25 6 0
BITMAP
fc07e03e
fc07e03c
fc07e07c
fc0fe078
fc0fe0f8
fc1fe0f0
fc1fe1f0
fc1fe1f0
fc3fe1e0
fc3fe3e0
fc7fe3c0
7c7fe7c0
7cf7e780
7ef7ef80
7ef7ef00
7fe7ff00
7fe7fe00
7fc7fe00
7fc7fe00
7fc7fc00
7f87fc00
7f87f800
7f07f800
7f07f000
7f07f000
ENDCHAR
STARTCHAR X
ENCODING 88
SWIDTH 696 0
DWIDTH 24 0
BBX 27 25 0 0
BITMAP
07f807e0
03f80fc0
03fc0f80
01fc1f00
01fc3e00
00fe7c00
00fef800
00fff800
007ff000
007fe000
003fc000
003f8000
003f8000
007fc000
007fc000
00ffe000
01ffe000
03ffe000
07e7f000
07c7f000
0f87f000
1f03f800
3e03f800
7e01fc00
fc01fc00
ENDCHAR
STARTCHAR Y
ENCODING 89
SWIDTH 681 0
DWIDTH 23 0
BBX 22 25 5 0
BITMAP
fe00fc
7e00f8
7e01f0
7f03e0
3f07c0
3f87c0
3f8f80
1f9f00
1ffe00
1ffe00
0ffc00
0ff800
07f000
07f000
07e000
07e000
0fe000
0fe000
0fe000
0fc000
0fc000
1fc000
1fc000
1fc000
1f8000
ENDCHAR
STARTCHAR Z
ENCODING 90
SWIDTH 687 0
DWIDTH 23 0
BBX 24 25 2 0
BITMAP
03ffff
07ffff
07ffff
07fffe
0001fe
0003fc
0007f8
000ff0
001fe0
001fe0
003fc0
007f80
00ff00
01fe00
03fc00
07fc00
07f800
0ff000
1fe000
3fc000
7f8000
7ffff0
7ffff0
fffff0
fffff0
ENDCHAR
STARTCHAR bracketleft
ENCODING 91
SWIDTH 386 0
DWIDTH 13 0
BBX 15 32 1 -6
BITMAP
03fe
03fe
03fc
03fc
07e0
07e0
07e0
07c0
07c0
0fc0
0fc0
0fc0
0f80
0f80
1f80
1f80
1f80
1f00
1f00
3f00
3f00
3f00
3e00
3e00
7e00
7e00
7e00
7c00
7fc0
ff80
ff80
ff80
ENDCHAR
STARTCHAR backslash
ENCODING 92
SWIDTH 566 0
DWIDTH 19 0
BBX 12 32 6 -6
BITMAP
f000
f800
7800
7800
7800
7c00
3c00
3c00
3c00
3c00
1e00
1e00
1e00
1e00
0f00
0f00
0f00
0f00
0780
0780
0780
0780
07c0
03c0
03c0
03c0
03e0
01e0
01e0
01e0
01f0
00f0
ENDCHAR
STARTCHAR bracketright
ENCODING 93
SWIDTH 386 0
DWIDTH 13 0
BBX 15 32 1 -6
BITMAP
03fe
03fe
03fe
07fc
007c
00fc
00fc
00fc
00f8
00f8
01f8
01f8
01f8
01f0
01f0
03f0
03f0
03f0
03e0
03e0
07e0
07e0
07e0
07c0
07c0
0fc0
0fc0
0fc0
7f80
7f80
ff80
ff80
ENDCHAR
STARTCHAR asciicircum
ENCODING 94
SWIDTH 687 0
DWIDTH 23 0
BBX 20 21 3 4
BITMAP
000400
000400
000e00
000e00
001e00
003e00
003f00
007f00
00ff00
00f780
01e780
03e780
03c380
0783c0
0f83c0
0f01c0
1e01e0
3e01e0
3c01e0
7800f0
f800f0
ENDCHAR
STARTCHAR underscore
ENCODING 95
SWIDTH 500 0
DWIDTH 17 0
BBX 15 4 1 -5
BITMAP
fffe
fffe
fffe
fffc
ENDCHAR
STARTCHAR grave
ENCODING 96
SWIDTH 663 0
DWIDTH 23 0
BBX 8 4 12 22
BITMAP
fc
3c
1e
0f
ENDCHAR
STARTCHAR a
ENCODING 97
SWIDTH 681 0
DWIDTH 23 0
BBX 21 18 3 0
BITMAP
007ff8
01fff8
03fff8
07fff0
0fc3f0
1f83f0
3f07f0
3f07f0
7e0fe0
7e1fe0
fe3fe0
fe37e0
fe7fe0
ffefc0
ffcfc0
ff8fc0
7f1fc0
3c1fc0
ENDCHAR
STARTCHAR b
ENCODING 98
SWIDTH 681 0
DWIDTH 23 0
BBX 21 26 3 0
BITMAP
07e000
07e000
07e000
0fe000
0fc000
0fc000
0fc000
0fc000
1fc1e0
1f87f0
1f8ff8
1f9ff8
1fbff8
3f7bf8
3f73f8
3fe3f8
3fc3f0
3f83f0
7f07e0
7f07e0
7e0fc0
7e1f80
7fff00
fffe00
fffc00
fff000
ENDCHAR
STARTCHAR c
ENCODING 99
SWIDTH 548 0
DWIDTH 19 0
BBX 18 18 3 0
BITMAP
003f00
01ffc0
03ffc0
0fff80
1fe380
3f8080
3f0000
7f0000
7e0000
fe0000
fe0000
fe0000
fe0100
ff0700
fffe00
7ffe00
3ffe00
0ff000
ENDCHAR
STARTCHAR d
ENCODING 100
SWIDTH 681 0
DWIDTH 23 0
BBX 23 26 3 0
BITMAP
0000fe
0000fe
0000fe
0000fc
0000fc
0001fc
0001fc
0001fc
007ff8
01fff8
03fff8
07fff8
0fc3f8
1f83f0
3f03f0
3f07f0
7e0ff0
7e1ff0
fe1fe0
fe37e0
fe77e0
ffefe0
ffcfe0
ff8fc0
7f0fc0
3e1fc0
ENDCHAR
STARTCHAR e
ENCODING 101
SWIDTH 612 0
DWIDTH 21 0
BBX 18 18 3 0
BITMAP
007e00
01ff80
07ffc0
0fffc0
1f8fc0
3f0fc0
3e1f80
7e3f00
7ffe00
fffc00
ffe000
fc0040
fe00c0
ff07c0
ffff80
7fff80
3fff00
0ff000
ENDCHAR
STARTCHAR f
ENCODING 102
SWIDTH 464 0
DWIDTH 16 0
BBX 20 33 2 -7
BITMAP
000fe0
003ff0
00fff0
01fff0
01f820
03f000
03f000
07f000
1fff00
3fff00
3fff00
3fff00
0fe000
0fe000
0fc000
0fc000
1fc000
1fc000
1f8000
1f8000
1f8000
3f8000
3f8000
3f0000
3f0000
3f0000
7f0000
7f0000
7e0000
7e0000
7e0000
fe0000
fe0000
ENDCHAR
STARTCHAR g
ENCODING 103
SWIDTH 674 0
DWIDTH 23 0
BBX 22 25 2 -7
BITMAP
003ffc
00fffc
01fffc
03fff8
07e1f8
0fc1f8
1f83f8
1f87f8
3f07f0
3f0ff0
7f1ff0
7f3bf0
7f7bf0
7ff7e0
7fe7e0
7fc7e0
3f8fe0
1f0fe0
000fc0
801fc0
f03fc0
ffff80
7fff00
7ffc00
7ff000
ENDCHAR
STARTCHAR h
ENCODING 104
SWIDTH 675 0
DWIDTH 23 0
BBX 21 26 2 0
BITMAP
07f000
07f000
07e000
07e000
0fe000
0fe000
0fe000
0fc000
0fc1e0
1fc3f0
1fcff8
1f9ff8
1f9ff8
1fbff8
3ff3f8
3f63f0
3fe3f0
3fc7f0
3f87f0
7f07e0
7f07e0
7e0fe0
7e0fe0
7e0fe0
fe0fc0
fe0fc0
ENDCHAR
STARTCHAR i
ENCODING 105
SWIDTH 343 0
DWIDTH 12 0
BBX 12 26 2 0
BITMAP
07f0
07f0
07e0
07e0
0fe0
0000
0000
0000
0fc0
1fc0
1fc0
1fc0
1f80
1f80
3f80
3f80
3f80
3f00
3f00
7f00
7f00
7f00
7e00
7e00
fe00
fe00
ENDCHAR
STARTCHAR j
ENCODING 106
SWIDTH 407 0
DWIDTH 14 0
BBX 20 33 -2 -7
BITMAP
0007f0
0007f0
0007e0
0007e0
000fe0
000000
000000
000000
000fc0
000fc0
001fc0
001fc0
001f80
001f80
003f80
003f80
003f80
003f00
003f00
007f00
007f00
007f00
007e00
007e00
00fe00
00fe00
00fc00
00fc00
41f800
fff800
fff000
ffc000
7f0000
ENDCHAR
STARTCHAR k
ENCODING 107
SWIDTH 666 0
DWIDTH 23 0
BBX 22 26 2 0
BITMAP
07f000
07f000
07e000
07e000
0fe000
0fe000
0fe000
0fc000
0fc07c
1fc0f8
1fc1f0
1fc3e0
1f87c0
1f8f80
3f9f00
3fbe00
3ffe00
3fff00
3f7f00
7f3f80
7f3f80
7e1fc0
7e1fc0
7e0fe0
fe0fe0
fe07f0
ENDCHAR
STARTCHAR l
ENCODING 108
SWIDTH 343 0
DWIDTH 12 0
BBX 12 26 2 0
BITMAP
07f0
07f0
07e0
07e0
0fe0
0fe0
0fe0
0fc0
0fc0
1fc0
1fc0
1fc0
1f80
1f80
3f80
3f80
3f80
3f00
3f00
7f00
7f00
7f00
7e00
7e00
fe00
fe00
ENDCHAR
STARTCHAR m
ENCODING 109
SWIDTH 991 0
DWIDTH 34 0
BBX 32 18 2 0
BITMAP
0fc1e03c
1fc7f0ff
1f8ff1ff
1f9ff3ff
1fbff3ff
1f3bf77f
3f73fe7e
3fe3ec7e
3fc7f87e
3f87f87e
3f87f0fe
7f07e0fc
7e07e0fc
7e0fe0fc
7e0fc0fc
7e0fc1fc
fe0fc1f8
fc1fc1f8
ENDCHAR
STARTCHAR n
ENCODING 110
SWIDTH 675 0
DWIDTH 23 0
BBX 21 18 2 0
BITMAP
0fc1e0
1fc7f0
1fcff8
1f9ff8
1f9ff8
1fbbf8
3ff3f8
3f63f0
3fc7f0
3fc7f0
3f87f0
7f07e0
7f07e0
7e0fe0
7e0fe0
7e0fe0
fe0fc0
fe0fc0
ENDCHAR
STARTCHAR o
ENCODING 111
SWIDTH 663 0
DWIDTH 23 0
BBX 21 18 3 0
BITMAP
007f80
01ffe0
07fff0
0ffff0
1fc7f8
3f83f8
3f03f8
7e03f8
7e03f0
fe03f0
fe07f0
fe07e0
fe0fe0
ff1fc0
ffff80
7ffe00
3ffc00
0fe000
ENDCHAR
STARTCHAR p
ENCODING 112
SWIDTH 681 0
DWIDTH 23 0
BBX 23 25 1 -7
BITMAP
07f0f8
07e1fc
0fe3fe
0fe7fe
0fcffe
0fdcfe
0ff8fe
1ff0fe
1fe0fc
1fe0fc
1fc1f8
1f83f8
3f83f0
3f8fe0
3fffc0
3fff80
3fff00
7ffc00
7f0000
7f0000
7e0000
7e0000
fe0000
fe0000
fe0000
ENDCHAR
STARTCHAR q
ENCODING 113
SWIDTH 681 0
DWIDTH 23 0
BBX 21 25 3 -7
BITMAP
007ff8
01fff8
03fff8
07fff0
0fc3f0
1f83f0
3f07f0
3f0ff0
7e0fe0
7e1fe0
fe3fe0
fe77e0
feffe0
ffefc0
ffcfc0
ff8fc0
7f1fc0
3c1fc0
001f80
001f80
001f80
003f80
003f80
003f00
003f00
ENDCHAR
STARTCHAR r
ENCODING 114
SWIDTH 542 0
DWIDTH 18 0
BBX 19 18 2 0
BITMAP
0fc1e0
1fc3c0
1fc7c0
1f8fc0
1f9f80
1fbf80
3fb800
3f7000
3fe000
3fc000
3f8000
7f0000
7f0000
7f0000
7e0000
7e0000
fe0000
fe0000
ENDCHAR
STARTCHAR s
ENCODING 115
SWIDTH 527 0
DWIDTH 18 0
BBX 17 18 2 0
BITMAP
00ff80
03ff80
0fff00
0fff00
1fc000
1fc000
0fc000
0fe000
07f800
03fc00
00fe00
007e00
407e00
70fe00
fffe00
fffc00
fff800
1fe000
ENDCHAR
STARTCHAR t
ENCODING 116
SWIDTH 437 0
DWIDTH 15 0
BBX 13 23 4 0
BITMAP
00e0
0fc0
1fc0
1fc0
1fc0
7ff8
fff8
fff8
fff0
3f80
3f80
3f00
7f00
7f00
7f00
7e00
7e00
fe00
ff00
ffe0
ffc0
7fc0
3f80
ENDCHAR
STARTCHAR u
ENCODING 117
SWIDTH 675 0
DWIDTH 23 0
BBX 21 18 3 0
BITMAP
1f83f8
1f83f8
3f83f0
3f83f0
3f07f0
3f07f0
3f07f0
7f0fe0
7f1fe0
7e1fe0
7e37e0
fe7fe0
feefc0
ffcfc0
ffcfc0
ff9fc0
7f1fc0
3c1f80
ENDCHAR
STARTCHAR v
ENCODING 118
SWIDTH 630 0
DWIDTH 21 0
BBX 21 18 4 0
BITMAP
fe00f8
fe01f0
fe01e0
7e03e0
7f03c0
7f07c0
7f0f80
7f0f00
3f1f00
3f1e00
3fbe00
3ffc00
3ff800
1ff800
1ff000
1ff000
1fe000
1fc000
ENDCHAR
STARTCHAR w
ENCODING 119
SWIDTH 878 0
DWIDTH 30 0
BBX 28 18 5 0
BITMAP
fc0f81f0
fc1f81e0
fc1f83e0
fc3f83c0
fc3f87c0
fc7f8780
fc7fcf80
fcffcf00
fcffdf00
fdefde00
fdeffe00
ffcffc00
7fcffc00
7f87f800
7f87f800
7f07f000
7f07f000
7e07e000
ENDCHAR
STARTCHAR x
ENCODING 120
SWIDTH 563 0
DWIDTH 19 0
BBX 22 18 0 0
BITMAP
0fe0fc
07e1f8
07f3f0
03f3e0
03ffc0
03ff80
01ff00
01fe00
00fe00
00fe00
01fe00
03ff00
07ff00
0fbf80
1f3f80
3f1f80
7e1fc0
fc1fe0
ENDCHAR
STARTCHAR y
ENCODING 121
SWIDTH 633 0
DWIDTH 21 0
BBX 24 25 1 -7
BITMAP
1fc01f
1fc03e
1fc07c
1fc07c
0fc0f8
0fe1f0
0fe1f0
0fe3e0
0fe7c0
07e7c0
07ef80
07ff00
07ff00
07fe00
03fc00
03f800
03f800
03f000
03e000
07e000
0fc000
1f8000
3f8000
7f0000
fe0000
ENDCHAR
STARTCHAR z
ENCODING 122
SWIDTH 630 0
DWIDTH 21 0
BBX 21 18 2 0
BITMAP
0ffff8
0ffff8
0ffff0
1ffff0
000fe0
001fc0
003f80
00ff00
01fe00
03fc00
07f800
0fe000
1fc000
3f8000
7fffe0
7fffe0
ffffc0
ffffc0
ENDCHAR
STARTCHAR braceleft
ENCODING 123
SWIDTH 386 0
DWIDTH 13 0
BBX 13 32 3 -6
BITMAP
0078
03f8
07f8
07f0
07e0
0fe0
0fe0
0fe0
0fe0
0fe0
0fc0
0fc0
0fc0
0f80
7f00
7c00
7c00
fe00
3f00
1f00
1f00
3f00
3f00
7f00
7e00
fe00
fe00
fe00
ff00
fe00
7e00
1e00
ENDCHAR
STARTCHAR bar
ENCODING 124
SWIDTH 259 0
DWIDTH 9 0
BBX 10 32 2 -6
BITMAP
03c0
03c0
03c0
0380
0780
0780
0780
0780
0700
0f00
0f00
0f00
0f00
0e00
1e00
1e00
1e00
1e00
1c00
3c00
3c00
3c00
3c00
3800
7800
7800
7800
7800
7000
f000
f000
f000
ENDCHAR
STARTCHAR braceright
ENCODING 125
SWIDTH 386 0
DWIDTH 13 0
BBX 13 32 1 -6
BITMAP
03c0
03f0
07f8
07f8
03f8
03f8
03f8
03f0
07f0
07e0
07e0
07c0
07c0
07e0
03f8
01f0
01f0
07f0
0f80
1f80
1f80
1f80
3f80
3f80
3f80
3f80
3f80
3f00
7f00
ff00
fe00
f000
ENDCHAR
STARTCHAR asciitilde
ENCODING 126
SWIDTH 687 0
DWIDTH 23 0
BBX 21 8 3 6
BITMAP
0f8000
3fc078
3ff078
7ff870
70fff0
f07fe0
e01fe0
000f80
ENDCHAR
STARTCHAR nobreakspace
ENCODING 160
SWIDTH 343 0
DWIDTH 12 0
BBX 1 1 0 0
BITMAP
00
ENDCHAR
STARTCHAR Aogonek
ENCODING 161
SWIDTH 771 0
DWIDTH 26 0
BBX 25 29 1 -4
BITMAP
0007f000
0007f000
000ff800
000ff800
001ff800
001ff800
003ff800
003dfc00
007dfc00
00f8fc00
00f8fc00
01f0fc00
01f0fe00
03e0fe00
03e07e00
07fffe00
07fffe00
0fffff00
0fffff00
1f003f00
1e003f00
3e003f00
7c003f80
7c003f80
f8001f80
001c0000
00780000
007d0000
003f0000
ENDCHAR
STARTCHAR breve
ENCODING 162
SWIDTH 663 0
DWIDTH 23 0
BBX 12 4 11 22
BITMAP
e0f0
ffe0
7fc0
3f00
ENDCHAR
STARTCHAR Lstroke
ENCODING 163
SWIDTH 623 0
DWIDTH 21 0
BBX 21 25 1 0
BITMAP
01fc00
01f800
01f800
03f800
03f800
03f800
03f800
03f100
07f700
07fe00
07fe00
07fc00
0ff800
3fe000
7fe000
7fe000
ffe000
efc000
9fc000
1fc000
1fc000
1ffff8
1ffff8
3ffff8
3ffff0
ENDCHAR
STARTCHAR currency
ENCODING 164
SWIDTH 687 0
DWIDTH 23 0
BBX 27 25 1 0
BITMAP
02000080
060001c0
0f0003e0
0f8007e0
07800fc0
07c01f00
03cfbe00
01fffc00
00fff800
01fff800
01f9f800
03f0f800
03e0f800
03e0f800
03e0f000
03e1f000
03f3f000
07fff000
0ffff000
1ffff800
3f3e7c00
7c003e00
f8001e00
70000c00
20000800
ENDCHAR
STARTCHAR Lcaron
ENCODING 165
SWIDTH 720 0
DWIDTH 24 0
BBX 22 29 3 0
BITMAP
0001fc
0001fc
0001f8
0001f8
07f3f8
07e3f8
0fe3f8
0fe0f0
0fe0f0
0fe7e0
0fc7c0
1fc600
1fc000
1fc000
1fc000
1f8000
3f8000
3f8000
3f8000
3f8000
3f0000
7f0000
7f0000
7f0000
7f0000
7fffe0
ffffe0
ffffe0
ffffc0
ENDCHAR
STARTCHAR Sacute
ENCODING 166
SWIDTH 639 0
DWIDTH 22 0
BBX 22 30 3 0
BITMAP
0000fc
0001f0
0003c0
000f00
000000
007fc0
01fff0
03fff0
07ffe0
0fe060
0fc000
1fc000
1fc000
1fe000
0ff000
0ffc00
07fe00
03ff00
01ff80
00ffc0
003fc0
001fc0
001fc0
001fc0
001fc0
603f80
7fff80
fffe00
fffc00
ffe000
ENDCHAR
STARTCHAR section
ENCODING 167
SWIDTH 687 0
DWIDTH 23 0
BBX 21 31 3 -6
BITMAP
003fe0
01fff8
03fff8
07fff0
07e030
0fe000
0fe000
0ff000
0ffc00
07ff00
03ff80
07ffc0
0fbfe0
1f1fe0
1f07e0
1f03e0
1f83e0
1fe3e0
1fffc0
1fff80
07ff00
03ff80
007fc0
003fc0
001fc0
401fc0
783f80
ffff80
ffff00
fffc00
1ff000
ENDCHAR
STARTCHAR diaeresis
ENCODING 168
SWIDTH 663 0
DWIDTH 23 0
BBX 12 4 10 21
BITMAP
78f0
78f0
f1e0
f1e0
ENDCHAR
STARTCHAR Scaron
ENCODING 169
SWIDTH 639 0
DWIDTH 22 0
BBX 21 30 3 0
BITMAP
007878
003de0
001fc0
001f80
000000
007fc0
01fff0
03fff0
07ffe0
0fe060
0fc000
1fc000
1fc000
1fe000
0ff000
0ffc00
07fe00
03ff00
01ff80
00ffc0
003fc0
001fc0
001fc0
001fc0
001fc0
603f80
7fff80
fffe00
fffc00
ffe000
ENDCHAR
STARTCHAR Scedilla
ENCODING 170
SWIDTH 639 0
DWIDTH 22 0
BBX 20 32 3 -7
BITMAP
007fc0
01fff0
03fff0
07ffe0
0fe060
0fc000
1fc000
1fc000
1fe000
0ff000
0ffc00
07fe00
03ff00
01ff80
00ffc0
003fc0
001fc0
001fc0
001fc0
001fc0
603f80
7fff80
fffe00
fffc00
ffe000
007000
00e000
00f000
003800
003800
03f800
03f000
ENDCHAR
STARTCHAR Tcaron
ENCODING 171
SWIDTH 747 0
DWIDTH 25 0
BBX 25 30 5 0
BITMAP
00787800
003de000
001fc000
001f8000
00000000
7fffff80
ffffff80
ffffff80
ffffff00
007e0000
007e0000
00fe0000
00fe0000
00fc0000
00fc0000
00fc0000
01fc0000
01fc0000
01fc0000
01f80000
01f80000
03f80000
03f80000
03f80000
03f00000
03f00000
07f00000
07f00000
07f00000
07e00000
ENDCHAR
STARTCHAR Zacute
ENCODING 172
SWIDTH 687 0
DWIDTH 23 0
BBX 24 30 2 0
BITMAP
00003f
00007c
0000f0
0003c0
000000
03ffff
07ffff
07ffff
07fffe
0001fe
0003fc
0007f8
000ff0
001fe0
001fe0
003fc0
007f80
00ff00
01fe00
03fc00
07fc00
07f800
0ff000
1fe000
3fc000
7f8000
7ffff0
7ffff0
fffff0
fffff0
ENDCHAR
STARTCHAR hyphen
ENCODING 173
SWIDTH 289 0
DWIDTH 10 0
BBX 8 4 3 9
BITMAP
7f
ff
ff
fe
ENDCHAR
STARTCHAR Zcaron
ENCODING 174
SWIDTH 687 0
DWIDTH 23 0
BBX 24 30 2 0
BITMAP
001e1e
000f78
0007f0
0007e0
000000
03ffff
07ffff
07ffff
07fffe
0001fe
0003fc
0007f8
000ff0
001fe0
001fe0
003fc0
007f80
00ff00
01fe00
03fc00
07fc00
07f800
0ff000
1fe000
3fc000
7f8000
7ffff0
7ffff0
fffff0
fffff0
ENDCHAR
STARTCHAR Zabovedot
ENCODING 175
SWIDTH 687 0
DWIDTH 23 0
BBX 24 30 2 0
BITMAP
0003e0
0003e0
0007c0
0007c0
000000
03ffff
07ffff
07ffff
07fffe
0001fe
0003fc
0007f8
000ff0
001fe0
001fe0
003fc0
007f80
00ff00
01fe00
03fc00
07fc00
07f800
0ff000
1fe000
3fc000
7f8000
7ffff0
7ffff0
fffff0
fffff0
ENDCHAR
STARTCHAR degree
ENCODING 176
SWIDTH 241 0
DWIDTH 8 0
BBX 6 6 6 19
BITMAP
78
f8
cc
cc
f8
78
ENDCHAR
STARTCHAR aogonek
ENCODING 177
SWIDTH 681 0
DWIDTH 23 0
BBX 21 22 3 -4
BITMAP
007ff8
01fff8
03fff8
07fff0
0fc3f0
1f83f0
3f07f0
3f07f0
7e0fe0
7e1fe0
fe3fe0
fe37e0
fe7fe0
ffefc0
ffcfc0
ff8fc0
7f1fc0
3c1fc0
007000
01e000
01f400
00fc00
ENDCHAR
STARTCHAR ogonek
ENCODING 178
SWIDTH 663 0
DWIDTH 23 0
BBX 7 4 7 -6
BITMAP
38
f0
fa
7e
ENDCHAR
STARTCHAR lstroke
ENCODING 179
SWIDTH 343 0
DWIDTH 12 0
BBX 16 26 1 0
BITMAP
01fc
01fc
01f8
03f8
03f8
03f8
03f9
03f7
07ff
07fe
07fe
07f8
0ff0
3fe0
7fe0
7fe0
ffe0
cfc0
9fc0
1fc0
1fc0
1f80
1f80
3f80
3f80
3f80
ENDCHAR
STARTCHAR acute
ENCODING 180
SWIDTH 663 0
DWIDTH 23 0
BBX 10 4 12 22
BITMAP
0fc0
1f00
3c00
f000
ENDCHAR
STARTCHAR lcaron
ENCODING 181
SWIDTH 660 0
DWIDTH 22 0
BBX 22 30 2 0
BITMAP
0001fc
0001fc
0001f8
0001f8
07f3f8
07f3f8
07e3f8
07e0f0
0fe0f0
0fe7e0
0fe7c0
0fc600
0fc000
1fc000
1fc000
1fc000
1f8000
1f8000
3f8000
3f8000
3f8000
3f0000
3f0000
7f0000
7f0000
7f0000
7e0000
7e0000
fe0000
fe0000
ENDCHAR
STARTCHAR sacute
ENCODING 182
SWIDTH 527 0
DWIDTH 18 0
BBX 19 23 2 0
BITMAP
0007e0
000f80
001e00
007800
000000
00ff80
03ff80
0fff00
0fff00
1fc000
1fc000
0fc000
0fe000
07f800
03fc00
00fe00
007e00
407e00
70fe00
fffe00
fffc00
fff800
1fe000
ENDCHAR
STARTCHAR caron
ENCODING 183
SWIDTH 663 0
DWIDTH 23 0
BBX 12 4 11 22
BITMAP
f0f0
7bc0
3f80
3f00
ENDCHAR
STARTCHAR cedilla
ENCODING 184
SWIDTH 663 0
DWIDTH 23 0
BBX 7 7 7 -7
BITMAP
1c
38
3c
0e
0e
fe
fc
ENDCHAR
STARTCHAR scaron
ENCODING 185
SWIDTH 527 0
DWIDTH 18 0
BBX 18 23 2 0
BITMAP
03c3c0
01ef00
00fe00
00fc00
000000
00ff80
03ff80
0fff00
0fff00
1fc000
1fc000
0fc000
0fe000
07f800
03fc00
00fe00
007e00
407e00
70fe00
fffe00
fffc00
fff800
1fe000
ENDCHAR
STARTCHAR scedilla
ENCODING 186
SWIDTH 527 0
DWIDTH 18 0
BBX 17 25 2 -7
BITMAP
00ff80
03ff80
0fff00
0fff00
1fc000
1fc000
0fc000
0fe000
07f800
03fc00
00fe00
007e00
407e00
70fe00
fffe00
fffc00
fff800
1fe000
00e000
01c000
01e000
007000
007000
07f000
07e000
ENDCHAR
STARTCHAR tcaron
ENCODING 187
SWIDTH 690 0
DWIDTH 23 0
BBX 21 31 4 0
BITMAP
0003f8
0003f8
0003f0
0003f0
0007f0
0007f0
0007f0
0001e0
00e1e0
0fcfc0
1fcf80
1fcc00
1fc000
7ff800
fff800
fff800
fff000
3f8000
3f8000
3f0000
7f0000
7f0000
7f0000
7e0000
7e0000
fe0000
ff0000
ffe000
ffc000
7fc000
3f8000
ENDCHAR
STARTCHAR zacute
ENCODING 188
SWIDTH 630 0
DWIDTH 21 0
BBX 21 23 2 0
BITMAP
0001f8
0003e0
000780
001e00
000000
0ffff8
0ffff8
0ffff0
1ffff0
000fe0
001fc0
003f80
00ff00
01fe00
03fc00
07f800
0fe000
1fc000
3f8000
7fffe0
7fffe0
ffffc0
ffffc0
ENDCHAR
STARTCHAR doubleacute
ENCODING 189
SWIDTH 663 0
DWIDTH 23 0
BBX 14 5 11 21
BITMAP
0f3c
1e70
3ce0
79c0
e380
ENDCHAR
STARTCHAR zcaron
ENCODING 190
SWIDTH 630 0
DWIDTH 21 0
BBX 21 23 2 0
BITMAP
00f0f0
007bc0
003f80
003f00
000000
0ffff8
0ffff8
0ffff0
1ffff0
000fe0
001fc0
003f80
00ff00
01fe00
03fc00
07f800
0fe000
1fc000
3f8000
7fffe0
7fffe0
ffffc0
ffffc0
ENDCHAR
STARTCHAR zabovedot
ENCODING 191
SWIDTH 630 0
DWIDTH 21 0
BBX 21 23 2 0
BITMAP
001f00
001f00
003e00
003e00
000000
0ffff8
0ffff8
0ffff0
1ffff0
000fe0
001fc0
003f80
00ff00
01fe00
03fc00
07f800
0fe000
1fc000
3f8000
7fffe0
7fffe0
ffffc0
ffffc0
ENDCHAR
STARTCHAR Racute
ENCODING 192
SWIDTH 708 0
DWIDTH 24 0
BBX 22 30 3 0
BITMAP
0000fc
0001f0
0003c0
000f00
000000
07ffe0
07fff8
0ffffc
0ffffc
0fc1fc
0fc1fc
0fc1fc
1f81fc
1f81f8
1f83f0
1f87f0
1fffe0
3fff80
3fff00
3fff00
3f3f80
3f1f80
7f1f80
7e1fc0
7e0fc0
7e0fe0
7e0fe0
fe07e0
fc07f0
fc07f0
ENDCHAR
STARTCHAR Aacute
ENCODING 193
SWIDTH 771 0
DWIDTH 26 0
BBX 25 31 1 0
BITMAP
00003f00
00007c00
0000f000
0003c000
00000000
00000000
0007f000
0007f000
000ff800
000ff800
001ff800
001ff800
003ff800
003dfc00
007dfc00
00f8fc00
00f8fc00
01f0fc00
01f0fe00
03e0fe00
03e07e00
07fffe00
07fffe00
0fffff00
0fffff00
1f003f00
1e003f00
3e003f00
7c003f80
7c003f80
f8001f80
ENDCHAR
STARTCHAR Acircumflex
ENCODING 194
SWIDTH 771 0
DWIDTH 26 0
BBX 25 31 1 0
BITMAP
0000fc00
0001fc00
0003de00
000f0f00
00000000
00000000
0007f000
0007f000
000ff800
000ff800
001ff800
001ff800
003ff800
003dfc00
007dfc00
00f8fc00
00f8fc00
01f0fc00
01f0fe00
03e0fe00
03e07e00
07fffe00
07fffe00
0fffff00
0fffff00
1f003f00
1e003f00
3e003f00
7c003f80
7c003f80
f8001f80
ENDCHAR
STARTCHAR Abreve
ENCODING 195
SWIDTH 771 0
DWIDTH 26 0
BBX 25 30 1 0
BITMAP
00070780
0007ff00
0003fe00
0001f800
00000000
0007f000
0007f000
000ff800
000ff800
001ff800
001ff800
003ff800
003dfc00
007dfc00
00f8fc00
00f8fc00
01f0fc00
01f0fe00
03e0fe00
03e07e00
07fffe00
07fffe00
0fffff00
0fffff00
1f003f00
1e003f00
3e003f00
7c003f80
7c003f80
f8001f80
ENDCHAR
STARTCHAR Adiaeresis
ENCODING 196
SWIDTH 771 0
DWIDTH 26 0
BBX 25 31 1 0
BITMAP
00078f00
00078f00
000f1e00
000f1e00
00000000
00000000
0007f000
0007f000
000ff800
000ff800
001ff800
001ff800
003ff800
003dfc00
007dfc00
00f8fc00
00f8fc00
01f0fc00
01f0fe00
03e0fe00
03e07e00
07fffe00
07fffe00
0fffff00
0fffff00
1f003f00
1e003f00
3e003f00
7c003f80
7c003f80
f8001f80
ENDCHAR
STARTCHAR Lacute
ENCODING 197
SWIDTH 623 0
DWIDTH 21 0
BBX 19 30 3 0
BITMAP
001f80
003e00
007800
01e000
000000
07f000
07e000
0fe000
0fe000
0fe000
0fe000
0fc000
1fc000
1fc000
1fc000
1fc000
1f8000
3f8000
3f8000
3f8000
3f8000
3f0000
7f0000
7f0000
7f0000
7f0000
7fffe0
ffffe0
ffffe0
ffffc0
ENDCHAR
STARTCHAR Cacute
ENCODING 198
SWIDTH 737 0
DWIDTH 25 0
BBX 26 30 3 0
BITMAP
00000fc0
00001f00
00003c00
0000f000
00000000
0007fc00
003fff80
00ffff80
03ffff80
07fc0f00
0ff00100
1fe00000
1fc00000
3f800000
3f000000
7f000000
7f000000
fe000000
fe000000
fe000000
fe000000
fe000000
fe000000
ff000000
7f800800
7fc07800
3ffff800
1ffff800
0ffff800
03ff0000
ENDCHAR
STARTCHAR Ccedilla
ENCODING 199
SWIDTH 737 0
DWIDTH 25 0
BBX 25 32 3 -7
BITMAP
0007fc00
003fff80
00ffff80
03ffff80
07fc0f00
0ff00100
1fe00000
1fc00000
3f800000
3f000000
7f000000
7f000000
fe000000
fe000000
fe000000
fe000000
fe000000
fe000000
ff000000
7f800800
7fc07800
3ffff800
1ffff800
0ffff800
03ff0000
00e00000
01c00000
01e00000
00700000
00700000
07f00000
07e00000
ENDCHAR
STARTCHAR Ccaron
ENCODING 200
SWIDTH 737 0
DWIDTH 25 0
BBX 25 30 3 0
BITMAP
00078780
0003de00
0001fc00
0001f800
00000000
0007fc00
003fff80
00ffff80
03ffff80
07fc0f00
0ff00100
1fe00000
1fc00000
3f800000
3f000000
7f000000
7f000000
fe000000
fe000000
fe000000
fe000000
fe000000
fe000000
ff000000
7f800800
7fc07800
3ffff800
1ffff800
0ffff800
03ff0000
ENDCHAR
STARTCHAR Eacute
ENCODING 201
SWIDTH 642 0
DWIDTH 22 0
BBX 22 31 3 0
BITMAP
0003f0
0007c0
000f00
003c00
000000
000000
07fffc
07fffc
07fff8
0ffff8
0fe000
0fe000
0fc000
0fc000
1fc000
1fc000
1fffc0
1fffc0
1fff80
3fff80
3f8000
3f8000
3f0000
3f0000
7f0000
7f0000
7f0000
7fffe0
7fffc0
ffffc0
ffffc0
ENDCHAR
STARTCHAR Eogonek
ENCODING 202
SWIDTH 642 0
DWIDTH 22 0
BBX 22 29 3 -4
BITMAP
07fffc
07fffc
07fff8
0ffff8
0fe000
0fe000
0fc000
0fc000
1fc000
1fc000
1fffc0
1fffc0
1fff80
3fff80
3f8000
3f8000
3f0000
3f0000
7f0000
7f0000
7f0000
7fffe0
7fffc0
ffffc0
ffffc0
007000
01e000
01f400
00fc00
ENDCHAR
STARTCHAR Ediaeresis
ENCODING 203
SWIDTH 642 0
DWIDTH 22 0
BBX 22 31 3 0
BITMAP
0078f0
0078f0
00f1e0
00f1e0
000000
000000
07fffc
07fffc
07fff8
0ffff8
0fe000
0fe000
0fc000
0fc000
1fc000
1fc000
1fffc0
1fffc0
1fff80
3fff80
3f8000
3f8000
3f0000
3f0000
7f0000
7f0000
7f0000
7fffe0
7fffc0
ffffc0
ffffc0
ENDCHAR
STARTCHAR Ecaron
ENCODING 204
SWIDTH 642 0
DWIDTH 22 0
BBX 22 30 3 0
BITMAP
003c3c
001ef0
000fe0
000fc0
000000
07fffc
07fffc
07fff8
0ffff8
0fe000
0fe000
0fc000
0fc000
1fc000
1fc000
1fffc0
1fffc0
1fff80
3fff80
3f8000
3f8000
3f0000
3f0000
7f0000
7f0000
7f0000
7fffe0
7fffc0
ffffc0
ffffc0
ENDCHAR
STARTCHAR Iacute
ENCODING 205
SWIDTH 361 0
DWIDTH 12 0
BBX 14 31 3 0
BITMAP
00fc
01f0
03c0
0f00
0000
0000
07e0
0fe0
0fe0
0fc0
0fc0
0fc0
1fc0
1fc0
1f80
1f80
1f80
1f80
3f80
3f00
3f00
3f00
3f00
7f00
7f00
7e00
7e00
7e00
fe00
fe00
fc00
ENDCHAR
STARTCHAR Icircumflex
ENCODING 206
SWIDTH 361 0
DWIDTH 12 0
BBX 14 31 3 0
BITMAP
03f0
07f0
0f78
3c3c
0000
0000
07e0
0fe0
0fe0
0fc0
0fc0
0fc0
1fc0
1fc0
1f80
1f80
1f80
1f80
3f80
3f00
3f00
3f00
3f00
7f00
7f00
7e00
7e00
7e00
fe00
fe00
fc00
ENDCHAR
STARTCHAR Dcaron
ENCODING 207
SWIDTH 822 0
DWIDTH 28 0
BBX 27 30 3 0
BITMAP
001e1e00
000f7800
0007f000
0007e000
00000000
07fff800
07ffff00
0fffff80
0fffffc0
0fe07fc0
0fe01fe0
0fc01fe0
1fc00fe0
1fc00fe0
1fc00fe0
1fc00fe0
1f800fe0
3f800fe0
3f801fc0
3f801fc0
3f801fc0
3f003f80
7f007f80
7f00ff00
7f01fe00
7f07fe00
7ffff800
fffff000
ffffc000
fffe0000
ENDCHAR
STARTCHAR Dstroke
ENCODING 208
SWIDTH 822 0
DWIDTH 28 0
BBX 28 25 2 0
BITMAP
03fffc00
03ffff80
07ffffc0
07ffffe0
07f03fe0
07f00ff0
07e00ff0
07e007f0
0fe007f0
0fe007f0
7fff07f0
fffe07f0
fffe07f0
fffe0fe0
1fc00fe0
1fc00fe0
1f801fc0
1f803fc0
3f807f80
3f80ff00
3f83ff00
3ffffe00
3ffff800
7fffe000
7fff8000
ENDCHAR
STARTCHAR Nacute
ENCODING 209
SWIDTH 789 0
DWIDTH 27 0
BBX 26 30 3 0
BITMAP
00003f00
00007c00
0000f000
0003c000
00000000
07e007c0
07e007c0
0ff007c0
0ff00f80
0ff80f80
0ff80f80
0ffc0f80
1ffc0f80
1ffe1f00
1ffe1f00
1f7e1f00
1f7f1f00
3e3f1f00
3e3fbe00
3e1fbe00
3e1ffe00
3e0ffe00
7c0ffe00
7c07fc00
7c07fc00
7c03fc00
7c03fc00
f801fc00
f801f800
f800f800
ENDCHAR
STARTCHAR Ncaron
ENCODING 210
SWIDTH 789 0
DWIDTH 27 0
BBX 26 30 3 0
BITMAP
001e1e00
000f7800
0007f000
0007e000
00000000
07e007c0
07e007c0
0ff007c0
0ff00f80
0ff80f80
0ff80f80
0ffc0f80
1ffc0f80
1ffe1f00
1ffe1f00
1f7e1f00
1f7f1f00
3e3f1f00
3e3fbe00
3e1fbe00
3e1ffe00
3e0ffe00
7c0ffe00
7c07fc00
7c07fc00
7c03fc00
7c03fc00
f801fc00
f801f800
f800f800
ENDCHAR
STARTCHAR Oacute
ENCODING 211
SWIDTH 855 0
DWIDTH 29 0
BBX 27 31 3 0
BITMAP
00007e00
0000f800
0001e000
00078000
00000000
00000000
000ff800
003ffe00
00ffff80
03ffffc0
07f83fc0
0fe01fe0
1fc00fe0
1f800fe0
3f800fe0
3f000fe0
7f000fe0
7f000fe0
fe000fe0
fe000fe0
fe001fc0
fe001fc0
fe003f80
fe003f80
ff007f00
7f00fe00
7fc3fc00
3ffff800
1fffe000
0fffc000
01fe0000
ENDCHAR
STARTCHAR Ocircumflex
ENCODING 212
SWIDTH 855 0
DWIDTH 29 0
BBX 27 31 3 0
BITMAP
0003f000
0007f000
000f7800
003c3c00
00000000
00000000
000ff800
003ffe00
00ffff80
03ffffc0
07f83fc0
0fe01fe0
1fc00fe0
1f800fe0
3f800fe0
3f000fe0
7f000fe0
7f000fe0
fe000fe0
fe000fe0
fe001fc0
fe001fc0
fe003f80
fe003f80
ff007f00
7f00fe00
7fc3fc00
3ffff800
1fffe000
0fffc000
01fe0000
ENDCHAR
STARTCHAR Odoubleacute
ENCODING 213
SWIDTH 855 0
DWIDTH 29 0
BBX 27 31 3 0
BITMAP
000079e0
0000f380
0001e700
0003ce00
00071c00
00000000
000ff800
003ffe00
00ffff80
03ffffc0
07f83fc0
0fe01fe0
1fc00fe0
1f800fe0
3f800fe0
3f000fe0
7f000fe0
7f000fe0
fe000fe0
fe000fe0
fe001fc0
fe001fc0
fe003f80
fe003f80
ff007f00
7f00fe00
7fc3fc00
3ffff800
1fffe000
0fffc000
01fe0000
ENDCHAR
STARTCHAR Odiaeresis
ENCODING 214
SWIDTH 855 0
DWIDTH 29 0
BBX 27 31 3 0
BITMAP
000f1e00
000f1e00
001e3c00
001e3c00
00000000
00000000
000ff800
003ffe00
00ffff80
03ffffc0
07f83fc0
0fe01fe0
1fc00fe0
1f800fe0
3f800fe0
3f000fe0
7f000fe0
7f000fe0
fe000fe0
fe000fe0
fe001fc0
fe001fc0
fe003f80
fe003f80
ff007f00
7f00fe00
7fc3fc00
3ffff800
1fffe000
0fffc000
01fe0000
ENDCHAR
STARTCHAR multiply
ENCODING 215
SWIDTH 687 0
DWIDTH 23 0
BBX 22 21 3 0
BITMAP
040010
0e0038
1e0078
0f00fc
0f81f0
07c3e0
03c7c0
03ef80
01ff00
00fe00
00fc00
01fc00
03fe00
07df00
0f8f00
1f0f80
3e07c0
fc03c0
7801e0
7001c0
200080
ENDCHAR
STARTCHAR Rcaron
ENCODING 216
SWIDTH 708 0
DWIDTH 24 0
BBX 22 30 3 0
BITMAP
007878
003de0
001fc0
001f80
000000
07ffe0
07fff8
0ffffc
0ffffc
0fc1fc
0fc1fc
0fc1fc
1f81fc
1f81f8
1f83f0
1f87f0
1fffe0
3fff80
3fff00
3fff00
3f3f80
3f1f80
7f1f80
7e1fc0
7e0fc0
7e0fe0
7e0fe0
fe07e0
fc07f0
fc07f0
ENDCHAR
STARTCHAR Uring
ENCODING 217
SWIDTH 759 0
DWIDTH 26 0
BBX 24 31 4 0
BITMAP
000700
000f80
000d80
000f80
000700
000000
1fc03f
1f803f
1f803f
1f803e
3f807e
3f807e
3f007e
3f007e
3f007c
7f00fc
7f00fc
7e00fc
7e00fc
7e00f8
fe01f8
fe01f8
fe01f8
fe01f0
fe03f0
fe03e0
7f07e0
7fffc0
3fff80
1fff00
03fc00
ENDCHAR
STARTCHAR Uacute
ENCODING 218
SWIDTH 759 0
DWIDTH 26 0
BBX 24 31 4 0
BITMAP
0003f0
0007c0
000f00
003c00
000000
000000
1fc03f
1f803f
1f803f
1f803e
3f807e
3f807e
3f007e
3f007e
3f007c
7f00fc
7f00fc
7e00fc
7e00fc
7e00f8
fe01f8
fe01f8
fe01f8
fe01f0
fe03f0
fe03e0
7f07e0
7fffc0
3fff80
1fff00
03fc00
ENDCHAR
STARTCHAR Udoubleacute
ENCODING 219
SWIDTH 759 0
DWIDTH 26 0
BBX 24 31 4 0
BITMAP
0003cf
00079c
000f38
001e70
0038e0
000000
1fc03f
1f803f
1f803f
1f803e
3f807e
3f807e
3f007e
3f007e
3f007c
7f00fc
7f00fc
7e00fc
7e00fc
7e00f8
fe01f8
fe01f8
fe01f8
fe01f0
fe03f0
fe03e0
7f07e0
7fffc0
3fff80
1fff00
03fc00
ENDCHAR
STARTCHAR Udiaeresis
ENCODING 220
SWIDTH 759 0
DWIDTH 26 0
BBX 24 31 4 0
BITMAP
0078f0
0078f0
00f1e0
00f1e0
000000
000000
1fc03f
1f803f
1f803f
1f803e
3f807e
3f807e
3f007e
3f007e
3f007c
7f00fc
7f00fc
7e00fc
7e00fc
7e00f8
fe01f8
fe01f8
fe01f8
fe01f0
fe03f0
fe03e0
7f07e0
7fffc0
3fff80
1fff00
03fc00
ENDCHAR
STARTCHAR Yacute
ENCODING 221
SWIDTH 681 0
DWIDTH 23 0
BBX 22 31 5 0
BITMAP
000fc0
001f00
003c00
00f000
000000
000000
fe00fc
7e00f8
7e01f0
7f03e0
3f07c0
3f87c0
3f8f80
1f9f00
1ffe00
1ffe00
0ffc00
0ff800
07f000
07f000
07e000
07e000
0fe000
0fe000
0fe000
0fc000
0fc000
1fc000
1fc000
1fc000
1f8000
ENDCHAR
STARTCHAR Tcedilla
ENCODING 222
SWIDTH 747 0
DWIDTH 25 0
BBX 25 32 5 -7
BITMAP
7fffff80
ffffff80
ffffff80
ffffff00
007e0000
007e0000
00fe0000
00fe0000
00fc0000
00fc0000
00fc0000
01fc0000
01fc0000
01fc0000
01f80000
01f80000
03f80000
03f80000
03f80000
03f00000
03f00000
07f00000
07f00000
07f00000
07e00000
000e0000
001c0000
001e0000
00070000
00070000
007f0000
007e0000
ENDCHAR
STARTCHAR ssharp
ENCODING 223
SWIDTH 708 0
DWIDTH 24 0
BBX 23 33 1 -7
BITMAP
000fe0
003ff8
00fffc
01fffc
01f8fc
03f0f8
03f0f8
07f1f0
07f1e0
07e3c0
07e7c0
0fe7c0
0fe7c0
0fe7e0
0fc7f0
0fc7f8
1fc3fc
1fc1fc
1fc0fe
1f807e
1f807e
3f907e
3f9ffe
3f9ffc
3f3ff8
3f1fe0
7f0000
7f0000
7f0000
7e0000
7e0000
fe0000
fe0000
ENDCHAR
STARTCHAR racute
ENCODING 224
SWIDTH 542 0
DWIDTH 18 0
BBX 20 23 2 0
BITMAP
0003f0
0007c0
000f00
003c00
000000
0fc1e0
1fc3c0
1fc7c0
1f8fc0
1f9f80
1fbf80
3fb800
3f7000
3fe000
3fc000
3f8000
7f0000
7f0000
7f0000
7e0000
7e0000
fe0000
fe0000
ENDCHAR
STARTCHAR aacute
ENCODING 225
SWIDTH 681 0
DWIDTH 23 0
BBX 21 24 3 0
BITMAP
0003f0
0007c0
000f00
003c00
000000
000000
007ff8
01fff8
03fff8
07fff0
0fc3f0
1f83f0
3f07f0
3f07f0
7e0fe0
7e1fe0
fe3fe0
fe37e0
fe7fe0
ffefc0
ffcfc0
ff8fc0
7f1fc0
3c1fc0
ENDCHAR
STARTCHAR acircumflex
ENCODING 226
SWIDTH 681 0
DWIDTH 23 0
BBX 21 24 3 0
BITMAP
000fc0
001fc0
003de0
00f0f0
000000
000000
007ff8
01fff8
03fff8
07fff0
0fc3f0
1f83f0
3f07f0
3f07f0
7e0fe0
7e1fe0
fe3fe0
fe37e0
fe7fe0
ffefc0
ffcfc0
ff8fc0
7f1fc0
3c1fc0
ENDCHAR
STARTCHAR abreve
ENCODING 227
SWIDTH 681 0
DWIDTH 23 0
BBX 21 23 3 0
BITMAP
007078
007ff0
003fe0
001f80
000000
007ff8
01fff8
03fff8
07fff0
0fc3f0
1f83f0
3f07f0
3f07f0
7e0fe0
7e1fe0
fe3fe0
fe37e0
fe7fe0
ffefc0
ffcfc0
ff8fc0
7f1fc0
3c1fc0
ENDCHAR
STARTCHAR adiaeresis
ENCODING 228
SWIDTH 681 0
DWIDTH 23 0
BBX 21 24 3 0
BITMAP
0078f0
0078f0
00f1e0
00f1e0
000000
000000
007ff8
01fff8
03fff8
07fff0
0fc3f0
1f83f0
3f07f0
3f07f0
7e0fe0
7e1fe0
fe3fe0
fe37e0
fe7fe0
ffefc0
ffcfc0
ff8fc0
7f1fc0
3c1fc0
ENDCHAR
STARTCHAR lacute
ENCODING 229
SWIDTH 343 0
DWIDTH 12 0
BBX 18 31 2 0
BITMAP
000fc0
001f00
003c00
00f000
000000
07f000
07f000
07e000
07e000
0fe000
0fe000
0fe000
0fc000
0fc000
1fc000
1fc000
1fc000
1f8000
1f8000
3f8000
3f8000
3f8000
3f0000
3f0000
7f0000
7f0000
7f0000
7e0000
7e0000
fe0000
fe0000
ENDCHAR
STARTCHAR cacute
ENCODING 230
SWIDTH 548 0
DWIDTH 19 0
BBX 21 23 3 0
BITMAP
0001f8
0003e0
000780
001e00
000000
003f00
01ffc0
03ffc0
0fff80
1fe380
3f8080
3f0000
7f0000
7e0000
fe0000
fe0000
fe0000
fe0100
ff0700
fffe00
7ffe00
3ffe00
0ff000
ENDCHAR
STARTCHAR ccedilla
ENCODING 231
SWIDTH 548 0
DWIDTH 19 0
BBX 18 25 3 -7
BITMAP
003f00
01ffc0
03ffc0
0fff80
1fe380
3f8080
3f0000
7f0000
7e0000
fe0000
fe0000
fe0000
fe0100
ff0700
fffe00
7ffe00
3ffe00
0ff000
038000
070000
078000
01c000
01c000
1fc000
1f8000
ENDCHAR
STARTCHAR ccaron
ENCODING 232
SWIDTH 548 0
DWIDTH 19 0
BBX 20 23 3 0
BITMAP
00f0f0
007bc0
003f80
003f00
000000
003f00
01ffc0
03ffc0
0fff80
1fe380
3f8080
3f0000
7f0000
7e0000
fe0000
fe0000
fe0000
fe0100
ff0700
fffe00
7ffe00
3ffe00
0ff000
ENDCHAR
STARTCHAR eacute
ENCODING 233
SWIDTH 612 0
DWIDTH 21 0
BBX 19 24 3 0
BITMAP
0007e0
000f80
001e00
007800
000000
000000
007e00
01ff80
07ffc0
0fffc0
1f8fc0
3f0fc0
3e1f80
7e3f00
7ffe00
fffc00
ffe000
fc0040
fe00c0
ff07c0
ffff80
7fff80
3fff00
0ff000
ENDCHAR
STARTCHAR eogonek
ENCODING 234
SWIDTH 612 0
DWIDTH 21 0
BBX 18 22 3 -4
BITMAP
007e00
01ff80
07ffc0
0fffc0
1f8fc0
3f0fc0
3e1f80
7e3f00
7ffe00
fffc00
ffe000
fc0040
fe00c0
ff07c0
ffff80
7fff80
3fff00
0ff000
01c000
078000
07d000
03f000
ENDCHAR
STARTCHAR ediaeresis
ENCODING 235
SWIDTH 612 0
DWIDTH 21 0
BBX 19 24 3 0
BITMAP
00f1e0
00f1e0
01e3c0
01e3c0
000000
000000
007e00
01ff80
07ffc0
0fffc0
1f8fc0
3f0fc0
3e1f80
7e3f00
7ffe00
fffc00
ffe000
fc0040
fe00c0
ff07c0
ffff80
7fff80
3fff00
0ff000
ENDCHAR
STARTCHAR ecaron
ENCODING 236
SWIDTH 612 0
DWIDTH 21 0
BBX 19 23 3 0
BITMAP
01e1e0
00f780
007f00
007e00
000000
007e00
01ff80
07ffc0
0fffc0
1f8fc0
3f0fc0
3e1f80
7e3f00
7ffe00
fffc00
ffe000
fc0040
fe00c0
ff07c0
ffff80
7fff80
3fff00
0ff000
ENDCHAR
STARTCHAR iacute
ENCODING 237
SWIDTH 343 0
DWIDTH 12 0
BBX 14 24 3 0
BITMAP
00fc
01f0
03c0
0f00
0000
0000
1fc0
1fc0
1f80
1f80
1f80
3f80
3f80
3f00
3f00
3f00
7f00
7f00
7e00
7e00
7e00
fe00
fe00
fc00
ENDCHAR
STARTCHAR icircumflex
ENCODING 238
SWIDTH 343 0
DWIDTH 12 0
BBX 14 24 3 0
BITMAP
03f0
07f0
0f78
3c3c
0000
0000
1fc0
1fc0
1f80
1f80
1f80
3f80
3f80
3f00
3f00
3f00
7f00
7f00
7e00
7e00
7e00
fe00
fe00
fc00
ENDCHAR
STARTCHAR dcaron
ENCODING 239
SWIDTH 990 0
DWIDTH 33 0
BBX 33 30 3 0
BITMAP
0000003f80
0000003f80
0000003f00
0000003f00
0000fe7f00
0000fe7f00
0000fe7f00
0000fc1e00
0000fc1e00
0001fcfc00
0001fcf800
0001fcc000
007ff80000
01fff80000
03fff80000
07fff80000
0fc3f80000
1f83f00000
3f03f00000
3f07f00000
7e0ff00000
7e1ff00000
fe1fe00000
fe37e00000
fe77e00000
ffefe00000
ffcfe00000
ff8fc00000
7f0fc00000
3e1fc00000
ENDCHAR
STARTCHAR dstroke
ENCODING 240
SWIDTH 780 0
DWIDTH 26 0
BBX 26 26 3 0
BITMAP
0000fe00
0000fe00
0000fe00
0000fc00
0000fc00
001fffc0
001fffc0
0001fc00
007ff800
01fff800
03fff800
07fff800
0fc3f800
1f83f000
3f03f000
3f07f000
7e0ff000
7e1ff000
fe1fe000
fe37e000
fe77e000
ffefe000
ffcfe000
ff8fc000
7f0fc000
3e1fc000
ENDCHAR
STARTCHAR nacute
ENCODING 241
SWIDTH 675 0
DWIDTH 23 0
BBX 21 23 2 0
BITMAP
0001f8
0003e0
000780
001e00
000000
0fc1e0
1fc7f0
1fcff8
1f9ff8
1f9ff8
1fbbf8
3ff3f8
3f63f0
3fc7f0
3fc7f0
3f87f0
7f07e0
7f07e0
7e0fe0
7e0fe0
7e0fe0
fe0fc0
fe0fc0
ENDCHAR
STARTCHAR ncaron
ENCODING 242
SWIDTH 675 0
DWIDTH 23 0
BBX 21 23 2 0
BITMAP
00f0f0
007bc0
003f80
003f00
000000
0fc1e0
1fc7f0
1fcff8
1f9ff8
1f9ff8
1fbbf8
3ff3f8
3f63f0
3fc7f0
3fc7f0
3f87f0
7f07e0
7f07e0
7e0fe0
7e0fe0
7e0fe0
fe0fc0
fe0fc0
ENDCHAR
STARTCHAR oacute
ENCODING 243
SWIDTH 663 0
DWIDTH 23 0
BBX 21 24 3 0
BITMAP
0003f0
0007c0
000f00
003c00
000000
000000
007f80
01ffe0
07fff0
0ffff0
1fc7f8
3f83f8
3f03f8
7e03f8
7e03f0
fe03f0
fe07f0
fe07e0
fe0fe0
ff1fc0
ffff80
7ffe00
3ffc00
0fe000
ENDCHAR
STARTCHAR ocircumflex
ENCODING 244
SWIDTH 663 0
DWIDTH 23 0
BBX 21 24 3 0
BITMAP
000fc0
001fc0
003de0
00f0f0
000000
000000
007f80
01ffe0
07fff0
0ffff0
1fc7f8
3f83f8
3f03f8
7e03f8
7e03f0
fe03f0
fe07f0
fe07e0
fe0fe0
ff1fc0
ffff80
7ffe00
3ffc00
0fe000
ENDCHAR
STARTCHAR odoubleacute
ENCODING 245
SWIDTH 663 0
DWIDTH 23 0
BBX 22 24 3 0
BITMAP
000f3c
001e70
003ce0
0079c0
00e380
000000
007f80
01ffe0
07fff0
0ffff0
1fc7f8
3f83f8
3f03f8
7e03f8
7e03f0
fe03f0
fe07f0
fe07e0
fe0fe0
ff1fc0
ffff80
7ffe00
3ffc00
0fe000
ENDCHAR
STARTCHAR odiaeresis
ENCODING 246
SWIDTH 663 0
DWIDTH 23 0
BBX 21 24 3 0
BITMAP
0078f0
0078f0
00f1e0
00f1e0
000000
000000
007f80
01ffe0
07fff0
0ffff0
1fc7f8
3f83f8
3f03f8
7e03f8
7e03f0
fe03f0
fe07f0
fe07e0
fe0fe0
ff1fc0
ffff80
7ffe00
3ffc00
0fe000
ENDCHAR
STARTCHAR division
ENCODING 247
SWIDTH 687 0
DWIDTH 23 0
BBX 20 21 4 0
BITMAP
007c00
007c00
007c00
007800
000000
000000
000000
000000
7ffff0
7ffff0
ffffe0
ffffe0
000000
000000
000000
000000
000000
01e000
03e000
03e000
03e000
ENDCHAR
STARTCHAR rcaron
ENCODING 248
SWIDTH 542 0
DWIDTH 18 0
BBX 19 23 2 0
BITMAP
01e1e0
00f780
007f00
007e00
000000
0fc1e0
1fc3c0
1fc7c0
1f8fc0
1f9f80
1fbf80
3fb800
3f7000
3fe000
3fc000
3f8000
7f0000
7f0000
7f0000
7e0000
7e0000
fe0000
fe0000
ENDCHAR
STARTCHAR uring
ENCODING 249
SWIDTH 675 0
DWIDTH 23 0
BBX 21 24 3 0
BITMAP
003800
007c00
006c00
007c00
003800
000000
1f83f8
1f83f8
3f83f0
3f83f0
3f07f0
3f07f0
3f07f0
7f0fe0
7f1fe0
7e1fe0
7e37e0
fe7fe0
feefc0
ffcfc0
ffcfc0
ff9fc0
7f1fc0
3c1f80
ENDCHAR
STARTCHAR uacute
ENCODING 250
SWIDTH 675 0
DWIDTH 23 0
BBX 21 24 3 0
BITMAP
0003f0
0007c0
000f00
003c00
000000
000000
1f83f8
1f83f8
3f83f0
3f83f0
3f07f0
3f07f0
3f07f0
7f0fe0
7f1fe0
7e1fe0
7e37e0
fe7fe0
feefc0
ffcfc0
ffcfc0
ff9fc0
7f1fc0
3c1f80
ENDCHAR
STARTCHAR udoubleacute
ENCODING 251
SWIDTH 675 0
DWIDTH 23 0
BBX 21 24 3 0
BITMAP
001e78
003ce0
0079c0
00f380
01c700
000000
1f83f8
1f83f8
3f83f0
3f83f0
3f07f0
3f07f0
3f07f0
7f0fe0
7f1fe0
7e1fe0
7e37e0
fe7fe0
feefc0
ffcfc0
ffcfc0
ff9fc0
7f1fc0
3c1f80
ENDCHAR
STARTCHAR udiaeresis
ENCODING 252
SWIDTH 675 0
DWIDTH 23 0
BBX 21 24 3 0
BITMAP
0078f0
0078f0
00f1e0
00f1e0
000000
000000
1f83f8
1f83f8
3f83f0
3f83f0
3f07f0
3f07f0
3f07f0
7f0fe0
7f1fe0
7e1fe0
7e37e0
fe7fe0
feefc0
ffcfc0
ffcfc0
ff9fc0
7f1fc0
3c1f80
ENDCHAR
STARTCHAR yacute
ENCODING 253
SWIDTH 633 0
DWIDTH 21 0
BBX 24 31 1 -7
BITMAP
0001f8
0003e0
000780
001e00
000000
000000
1fc01f
1fc03e
1fc07c
1fc07c
0fc0f8
0fe1f0
0fe1f0
0fe3e0
0fe7c0
07e7c0
07ef80
07ff00
07ff00
07fe00
03fc00
03f800
03f800
03f000
03e000
07e000
0fc000
1f8000
3f8000
7f0000
fe0000
ENDCHAR
STARTCHAR tcedilla
ENCODING 254
SWIDTH 437 0
DWIDTH 15 0
BBX 13 30 4 -7
BITMAP
00e0
0fc0
1fc0
1fc0
1fc0
7ff8
fff8
fff8
fff0
3f80
3f80
3f00
7f00
7f00
7f00
7e00
7e00
fe00
ff00
ffe0
ffc0
7fc0
3f80
0380
0700
0780
01c0
01c0
1fc0
1f80
ENDCHAR
STARTCHAR abovedot
ENCODING 255
SWIDTH 663 0
DWIDTH 23 0
BBX 6 4 13 22
BITMAP
7c
7c
f8
f8
ENDCHAR
ENDFONT
